<svg width="32" height="32" viewBox="0 0 32 32" fill="none" xmlns="http://www.w3.org/2000/svg">
<path d="M23 20.6875V20.8946L23.1464 21.0411L25.5 23.3946V23.9375H6.5V23.3946L8.85355 21.0411L9 20.8946V20.6875V14.4375C9 10.7619 10.9297 7.80842 14.2403 7.02403L14.625 6.93288V6.5375V5.6875C14.625 4.92614 15.2386 4.3125 16 4.3125C16.7614 4.3125 17.375 4.92614 17.375 5.6875V6.5375V6.93256L17.7593 7.02394C21.0581 7.80826 23 10.7748 23 14.4375V20.6875ZM17.9361 26.1875C17.7123 27.047 16.9264 27.6875 16 27.6875C15.0642 27.6875 14.2845 27.0479 14.063 26.1875H17.9361Z" stroke="#2B2B2B"/>
</svg>
