<svg width="24" height="24" viewBox="0 0 24 24" fill="none" xmlns="http://www.w3.org/2000/svg">
<path fill-rule="evenodd" clip-rule="evenodd" d="M22 12C22 17.5228 17.5228 22 12 22C6.47715 22 2 17.5228 2 12C2 6.47718 6.47715 2 12 2C14.5795 2 16.931 2.97674 18.7046 4.58048L15.7441 7.6335C14.7061 6.73862 13.3545 6.19753 11.8765 6.19753C8.60375 6.19753 5.95062 8.85065 5.95062 12.1235C5.95062 15.3963 8.60375 18.0494 11.8765 18.0494C15.1493 18.0494 17.8025 15.3963 17.8025 12.1235C17.8025 11.6119 17.7377 11.1155 17.6158 10.642H21.9086C21.9689 11.0861 22 11.5394 22 12Z" fill="#6644AF"/>
<path d="M11.8765 10.642H19.037V14.0988H11.8765V10.642Z" fill="#6644AF"/>
</svg>
