<svg width="310" height="180" viewBox="0 0 310 180" fill="none" xmlns="http://www.w3.org/2000/svg">
<path d="M81.4022 158.509L81.408 158.494L81.4135 158.478L85.454 147.077H126.225L130.265 158.478L130.271 158.494L130.277 158.509C131.109 160.703 132.292 162.471 133.89 163.688C135.504 164.916 137.431 165.5 139.589 165.5H156.747H172.812H188.563C190.266 165.5 191.759 164.858 192.968 163.639C194.176 162.421 194.809 160.923 194.809 159.217V110.623L204.782 130.447C205.286 131.596 206.325 132.713 207.648 133.803C209.255 135.128 211.253 135.74 213.524 135.74H225.477C227.747 135.74 229.746 135.128 231.353 133.803C232.675 132.713 233.715 131.596 234.219 130.447L244.192 110.623V159.217C244.192 160.923 244.825 162.421 246.033 163.639C247.242 164.858 248.735 165.5 250.438 165.5H282.254C283.957 165.5 285.45 164.858 286.659 163.639C287.867 162.421 288.5 160.923 288.5 159.217V44.7829C288.5 43.0773 287.867 41.5786 286.659 40.3606L286.659 40.3606C285.45 39.1423 283.957 38.5 282.254 38.5H250.086C246.189 38.5 243.2 40.4555 241.214 44.0587L241.209 44.0685L219.5 84.1476L197.792 44.0684L197.787 44.0587C195.801 40.4555 192.812 38.5 188.915 38.5H156.747C155.044 38.5 153.551 39.1423 152.342 40.3606L153.407 41.4171L152.342 40.3606C151.134 41.5786 150.501 43.0772 150.501 44.7829V77.554L139.611 45.3852C139.055 43.5805 138.022 42.0052 136.559 40.6654C134.924 39.1674 132.768 38.5 130.273 38.5H81.4059C78.9106 38.5 76.7544 39.1674 75.1193 40.6654L76.1284 41.7669L75.1193 40.6654C73.6568 42.0052 72.6236 43.5805 72.0681 45.3853L33.755 158.559L33.7158 158.675L33.6959 158.795L33.5201 159.858L33.5 159.98V160.103C33.5 161.53 33.9836 162.817 34.9121 163.909L34.9868 163.997L35.0742 164.072C36.1586 165.009 37.4416 165.5 38.8672 165.5H72.0896C74.2476 165.5 76.1749 164.916 77.7883 163.688C79.3869 162.471 80.5699 160.703 81.4022 158.509ZM116.228 109.534H95.4508L105.839 78.8642L116.228 109.534Z" stroke="white" stroke-width="3"/>
<path d="M21.7891 13.5957L35.5098 61.9844L49.084 13.5957H40.2949V4.41602H74.084V13.5957H65.3926L78.8203 61.9844L92.5898 13.5957H83.8984V4.41602H110.9V13.5957H102.404L83.8008 78.7812H73.4004L56.7988 20.1875L40.2949 78.7812H29.9922L11.1934 13.5957H2.50195V4.41602H30.627V13.5957H21.7891ZM115.217 13.5957V34.3965H147.199V13.5957H138.605V4.41602H166.779V13.5957H158.283V68.8203H166.779V78H138.605V68.8203H147.199V43.5762H115.217V68.8203H123.908V78H95.7832V68.8203H104.084V13.5957H95.7832V4.41602H123.908V13.5957H115.217ZM230.666 40.9883C230.666 48.4753 229.006 55.1322 225.686 60.959C222.398 66.7858 217.84 71.2943 212.014 74.4844C206.187 77.6419 199.562 79.2207 192.141 79.2207C184.816 79.2207 178.306 77.5768 172.609 74.2891C166.913 70.9688 162.469 66.3952 159.279 60.5684C156.122 54.709 154.543 48.1172 154.543 40.793C154.543 33.5339 156.154 27.056 159.377 21.3594C162.632 15.6628 167.108 11.2194 172.805 8.0293C178.501 4.80664 184.979 3.19531 192.238 3.19531C199.79 3.19531 206.48 4.85547 212.307 8.17578C218.133 11.4635 222.642 15.972 225.832 21.7012C229.055 27.4303 230.666 33.8594 230.666 40.9883ZM192.58 69.4062C197.626 69.4062 202.134 68.0879 206.105 65.4512C210.077 62.8145 213.137 59.3151 215.285 54.9531C217.466 50.5911 218.557 45.9362 218.557 40.9883C218.557 35.9427 217.401 31.2715 215.09 26.9746C212.811 22.6452 209.654 19.2435 205.617 16.7695C201.581 14.263 197.023 13.0098 191.945 13.0098C186.965 13.0098 182.554 14.2305 178.713 16.6719C174.872 19.0807 171.893 22.4173 169.777 26.6816C167.694 30.946 166.652 35.6823 166.652 40.8906C166.652 46.4245 167.694 51.3561 169.777 55.6855C171.893 60.015 174.921 63.3841 178.859 65.793C182.798 68.2018 187.372 69.4062 192.58 69.4062Z" fill="white"/>
<circle cx="193" cy="41" r="38" fill="white"/>
<mask id="mask0_351_57" style="mask-type:alpha" maskUnits="userSpaceOnUse" x="154" y="1" width="77" height="79">
<path d="M231 40.5C231 62.3152 215.5 79.5 192.5 79.5C170 79.5 154 62.3152 154 40.5C154 18.6848 170.685 1 192.5 1C214.315 1 231 18.6848 231 40.5Z" fill="white"/>
</mask>
<g mask="url(#mask0_351_57)">
<path d="M193 50C201.564 50 208.5 43.0637 208.5 34.5C208.5 25.9362 201.564 19 193 19C184.436 19 177.5 25.9362 177.5 34.5C177.5 43.0637 184.436 50 193 50ZM193 57.75C182.654 57.75 162 62.9425 162 73.25V81H224V73.25C224 62.9425 203.346 57.75 193 57.75Z" fill="#95639D"/>
</g>
<path d="M295.789 74.0947C295.789 76.585 294.886 78.7334 293.079 80.54C291.272 82.3467 289.124 83.25 286.634 83.25C284.144 83.25 282.02 82.3467 280.262 80.54C278.504 78.7334 277.625 76.585 277.625 74.0947C277.625 71.6045 278.504 69.4561 280.262 67.6494C282.02 65.8428 284.144 64.9395 286.634 64.9395C289.222 64.9395 291.395 65.8184 293.152 67.5762C294.91 69.334 295.789 71.5068 295.789 74.0947ZM306.629 163.523V177H267.737V163.523H279.749V113.572H267.737V100.022H294.91V163.523H306.629Z" fill="white"/>
</svg>
