<svg width="24" height="24" viewBox="0 0 24 24" fill="none" xmlns="http://www.w3.org/2000/svg">
<path fill-rule="evenodd" clip-rule="evenodd" d="M13.8996 15.5747C12.6638 16.4713 11.1436 17 9.5 17C5.35786 17 2 13.6421 2 9.5C2 5.35786 5.35786 2 9.5 2C13.6421 2 17 5.35786 17 9.5C17 11.6341 16.1086 13.5601 14.6779 14.9258L21.8275 21.1222C22.0361 21.303 22.0587 21.6188 21.8778 21.8275C21.697 22.0361 21.3812 22.0587 21.1725 21.8778L13.8996 15.5747ZM16 9.5C16 13.0899 13.0899 16 9.5 16C5.91015 16 3 13.0899 3 9.5C3 5.91015 5.91015 3 9.5 3C13.0899 3 16 5.91015 16 9.5Z" fill="white"/>
</svg>
